<svg width="20" height="20" viewBox="0 0 20 20" fill="none" xmlns="http://www.w3.org/2000/svg">
<g clip-path="url(#clip0_430_3611)">
<path fill-rule="evenodd" clip-rule="evenodd" d="M10 0C15.5232 0 20 4.47676 20 10C20 15.5232 15.5232 20 10 20C4.47676 20 0 15.5232 0 10C0 4.47676 4.47676 0 10 0Z" fill="#F0B90B"/>
<path d="M5.49599 10L5.50321 12.6442L7.75 13.9663V15.5144L4.1883 13.4255V9.22676L5.49599 10ZM5.49599 7.35577V8.89664L4.1875 8.1226V6.58173L5.49599 5.80769L6.8109 6.58173L5.49599 7.35577ZM8.6883 6.58173L9.99679 5.80769L11.3117 6.58173L9.99679 7.35577L8.6883 6.58173Z" fill="white"/>
<path d="M6.44141 12.0962V10.5481L7.7499 11.3221V12.863L6.44141 12.0962ZM8.6882 14.5208L9.99669 15.2949L11.3116 14.5208V16.0617L9.99669 16.8357L8.6882 16.0617V14.5208ZM13.1882 6.58173L14.4967 5.80769L15.8116 6.58173V8.1226L14.4967 8.89664V7.35577L13.1882 6.58173ZM14.4967 12.6442L14.5039 10L15.8124 9.22596V13.4247L12.2507 15.5136V13.9655L14.4967 12.6442Z" fill="white"/>
<path d="M13.5585 12.0962L12.25 12.863V11.3221L13.5585 10.5481V12.0962Z" fill="white"/>
<path d="M13.5584 7.90384L13.5656 9.45192L11.3124 10.774V13.4247L10.0039 14.1915L8.69541 13.4247V10.774L6.44221 9.45192V7.90384L7.75631 7.12981L9.99589 8.45833L12.2491 7.12981L13.564 7.90384H13.5584ZM6.44141 5.26041L9.99669 3.16426L13.5584 5.26041L12.2499 6.03445L9.99669 4.70593L7.7499 6.03445L6.44141 5.26041Z" fill="white"/>
</g>
<defs>
<clipPath id="clip0_430_3611">
<rect width="20" height="20" fill="white"/>
</clipPath>
</defs>
</svg>
