<svg width="131" height="54" viewBox="0 0 131 54" fill="none" xmlns="http://www.w3.org/2000/svg">
<g filter="url(#filter0_d_136_3721)">
<path d="M11 39L14.6333 35.6667L18.2667 22.3333L21.9 29L25.5333 15.6667L29.1667 19H32.8L36.4333 12.3333L40.0667 22.3333L43.7 19L47.3333 15.6667L50.9667 22.3333L54.6 12.3333H58.2333L61.8667 9L65.5 15.6667L69.1333 12.3333L72.7667 19L76.4 15.6667L80.0333 22.3333L83.6667 25.6667L87.3 19L90.9333 15.6667L94.5667 9L98.2 15.6667L101.833 19L105.467 9L109.1 12.3333L112.733 15.6667L116.367 12.3333L120 15.6667" stroke="#FF1B5E" stroke-width="2"/>
</g>
<defs>
<filter id="filter0_d_136_3721" x="0.32373" y="0.910339" width="130.353" height="52.8265" filterUnits="userSpaceOnUse" color-interpolation-filters="sRGB">
<feFlood flood-opacity="0" result="BackgroundImageFix"/>
<feColorMatrix in="SourceAlpha" type="matrix" values="0 0 0 0 0 0 0 0 0 0 0 0 0 0 0 0 0 0 127 0" result="hardAlpha"/>
<feOffset dy="4"/>
<feGaussianBlur stdDeviation="5"/>
<feComposite in2="hardAlpha" operator="out"/>
<feColorMatrix type="matrix" values="0 0 0 0 1 0 0 0 0 0.105882 0 0 0 0 0.368627 0 0 0 0.5 0"/>
<feBlend mode="normal" in2="BackgroundImageFix" result="effect1_dropShadow_136_3721"/>
<feBlend mode="normal" in="SourceGraphic" in2="effect1_dropShadow_136_3721" result="shape"/>
</filter>
</defs>
</svg>
