<svg width="167" height="168" viewBox="0 0 167 168" fill="none" xmlns="http://www.w3.org/2000/svg">
<g opacity="0.1">
<path d="M150.887 20.8031C149.439 19.5689 147.686 18.7524 145.814 18.4404C143.941 18.1284 142.02 18.3326 140.254 19.0312L19.8313 66.6093C17.7191 67.4189 15.93 68.9045 14.7395 70.8373C13.5489 72.7702 13.023 75.0431 13.2426 77.3062C13.4386 79.5684 14.3582 81.7057 15.8637 83.3977C17.3692 85.0896 19.3793 86.245 21.5926 86.6906L52.1876 92.7937V131.25C52.1865 133.33 52.7997 135.364 53.9496 137.093C55.0994 138.823 56.7339 140.169 58.6458 140.962C59.9111 141.475 61.2612 141.742 62.6251 141.75C63.9959 141.755 65.354 141.485 66.6197 140.955C67.8855 140.425 69.0335 139.647 69.9965 138.666L86.9575 121.669L112.595 144.375C114.487 146.054 116.921 146.987 119.444 147C120.554 147.023 121.659 146.845 122.706 146.475C124.427 145.927 125.977 144.937 127.201 143.601C128.425 142.266 129.282 140.633 129.686 138.862L154.214 31.1062C154.643 29.2468 154.56 27.3051 153.973 25.4897C153.387 23.6743 152.32 22.0541 150.887 20.8031ZM119.509 136.5L65.7563 88.9219L143.19 32.6812L119.509 136.5Z" fill="white"/>
</g>
</svg>
