<svg width="25" height="25" viewBox="0 0 25 25" fill="none" xmlns="http://www.w3.org/2000/svg">
<path d="M9.375 15.0391C9.91434 15.0391 10.3516 14.6018 10.3516 14.0625C10.3516 13.5232 9.91434 13.0859 9.375 13.0859C8.83566 13.0859 8.39844 13.5232 8.39844 14.0625C8.39844 14.6018 8.83566 15.0391 9.375 15.0391Z" fill="#FF1B5E"/>
<path d="M15.625 15.0391C16.1643 15.0391 16.6016 14.6018 16.6016 14.0625C16.6016 13.5232 16.1643 13.0859 15.625 13.0859C15.0857 13.0859 14.6484 13.5232 14.6484 14.0625C14.6484 14.6018 15.0857 15.0391 15.625 15.0391Z" fill="#FF1B5E"/>
<path d="M7.26562 7.81248C8.95923 7.28169 10.7252 7.01811 12.5 7.03123C14.2748 7.01811 16.0408 7.28169 17.7344 7.81248" stroke="#FF1B5E" stroke-width="1.5" stroke-linecap="round" stroke-linejoin="round"/>
<path d="M17.7344 17.1875C16.0408 17.7183 14.2748 17.9819 12.5 17.9688C10.7252 17.9819 8.95923 17.7183 7.26562 17.1875" stroke="#FF1B5E" stroke-width="1.5" stroke-linecap="round" stroke-linejoin="round"/>
<path d="M15.1367 17.7832L16.3184 20.127C16.3944 20.2868 16.5237 20.4152 16.6841 20.49C16.8445 20.5648 17.0259 20.5815 17.1973 20.5371C19.5898 19.9512 21.6602 18.9356 23.1641 17.627C23.2774 17.5269 23.3598 17.3965 23.4013 17.2511C23.4429 17.1057 23.4419 16.9515 23.3984 16.8066L20.0879 5.75196C20.0557 5.63883 19.9974 5.53483 19.9176 5.44833C19.8379 5.36183 19.739 5.29524 19.6289 5.25391C18.6936 4.87019 17.7263 4.56955 16.7383 4.35547C16.5484 4.31389 16.3499 4.34367 16.1806 4.43914C16.0112 4.5346 15.883 4.68907 15.8203 4.87305L15.0488 7.20704" stroke="#FF1B5E" stroke-width="1.5" stroke-linecap="round" stroke-linejoin="round"/>
<path d="M9.8634 17.7832L8.68176 20.127C8.60572 20.2868 8.47641 20.4152 8.31602 20.49C8.15563 20.5648 7.97418 20.5815 7.80285 20.5371C5.41027 19.9512 3.33996 18.9356 1.83605 17.627C1.72267 17.5269 1.64033 17.3965 1.59879 17.2511C1.55726 17.1057 1.55826 16.9515 1.60168 16.8066L4.91222 5.75196C4.94444 5.63883 5.00275 5.53483 5.08247 5.44833C5.16218 5.36183 5.26108 5.29524 5.37121 5.25391C6.30652 4.87019 7.27379 4.56955 8.26183 4.35547C8.45171 4.31389 8.65024 4.34367 8.81956 4.43914C8.98887 4.5346 9.11711 4.68907 9.1798 4.87305L9.95129 7.20704" stroke="#FF1B5E" stroke-width="1.5" stroke-linecap="round" stroke-linejoin="round"/>
</svg>
