<svg width="25" height="25" viewBox="0 0 25 25" fill="none" xmlns="http://www.w3.org/2000/svg">
<path d="M12.5 21.875C17.6777 21.875 21.875 17.6777 21.875 12.5C21.875 7.32233 17.6777 3.125 12.5 3.125C7.32233 3.125 3.125 7.32233 3.125 12.5C3.125 17.6777 7.32233 21.875 12.5 21.875Z" stroke="white" stroke-width="1.5" stroke-linecap="round" stroke-linejoin="round"/>
<path d="M12.5 18.5547C13.0393 18.5547 13.4766 18.1175 13.4766 17.5781C13.4766 17.0388 13.0393 16.6016 12.5 16.6016C11.9607 16.6016 11.5234 17.0388 11.5234 17.5781C11.5234 18.1175 11.9607 18.5547 12.5 18.5547Z" fill="white"/>
<path d="M12.5 14.0625V13.2813C13.0408 13.2813 13.5695 13.1209 14.0191 12.8204C14.4688 12.52 14.8193 12.0929 15.0262 11.5933C15.2332 11.0936 15.2873 10.5438 15.1818 10.0134C15.0763 9.48301 14.8159 8.99579 14.4335 8.61338C14.0511 8.23097 13.5639 7.97055 13.0334 7.86504C12.503 7.75954 11.9532 7.81368 11.4536 8.02064C10.954 8.2276 10.5269 8.57807 10.2265 9.02774C9.92599 9.4774 9.76562 10.0061 9.76562 10.5469" stroke="white" stroke-width="1.5" stroke-linecap="round" stroke-linejoin="round"/>
</svg>
