<svg width="22" height="22" viewBox="0 0 22 22" fill="none" xmlns="http://www.w3.org/2000/svg">
<path d="M10.9999 6.87507C10.1841 6.87507 9.38652 7.117 8.70817 7.5702C8.02981 8.02347 7.50112 8.66773 7.18893 9.4215C6.87674 10.1752 6.79501 11.0046 6.95415 11.8048C7.11337 12.605 7.50621 13.34 8.08309 13.9169C8.65997 14.4937 9.39498 14.8866 10.1952 15.0458C10.9953 15.205 11.8247 15.1233 12.5785 14.811C13.3322 14.4988 13.9765 13.9701 14.4297 13.2918C14.883 12.6134 15.1249 11.8159 15.1249 11.0001C15.1238 9.90639 14.6888 8.85782 13.9155 8.08445C13.1421 7.31115 12.0936 6.87617 10.9999 6.87507ZM10.9999 13.7501C10.456 13.7501 9.92435 13.5888 9.47212 13.2866C9.01988 12.9844 8.6674 12.5549 8.45922 12.0524C8.25112 11.5499 8.19667 10.997 8.30275 10.4635C8.4089 9.93011 8.67077 9.44006 9.05535 9.05548C9.43994 8.67089 9.92999 8.40902 10.4634 8.30287C10.9969 8.19679 11.5498 8.25124 12.0523 8.45934C12.5548 8.66752 12.9843 9.02 13.2864 9.47224C13.5887 9.92448 13.7499 10.4561 13.7499 11.0001C13.7499 11.7294 13.4602 12.4288 12.9445 12.9446C12.4287 13.4603 11.7292 13.7501 10.9999 13.7501ZM18.5624 11.1857C18.5659 11.0619 18.5659 10.9382 18.5624 10.8144L19.8446 9.21257C19.9118 9.12842 19.9583 9.02969 19.9805 8.9243C20.0026 8.81898 19.9996 8.70987 19.9718 8.60585C19.7616 7.81571 19.4472 7.05712 19.0368 6.34996C18.9831 6.25742 18.9085 6.1787 18.819 6.12007C18.7294 6.06144 18.6275 6.02451 18.5212 6.01223L16.4828 5.78535C16.3979 5.69598 16.312 5.61004 16.2249 5.52754L15.9843 3.48395C15.9719 3.37756 15.9349 3.27555 15.876 3.18603C15.8173 3.09651 15.7384 3.02196 15.6457 2.96832C14.9383 2.5587 14.1798 2.24459 13.3898 2.03418C13.2857 2.0065 13.1766 2.00368 13.0712 2.02592C12.9659 2.04816 12.8671 2.09485 12.7831 2.16223L11.1856 3.43754C11.0618 3.43754 10.9381 3.43754 10.8143 3.43754L9.21245 2.15793C9.1283 2.0907 9.02957 2.04416 8.92418 2.02208C8.81885 1.99998 8.70975 2.00295 8.60573 2.03074C7.81572 2.24131 7.05713 2.55572 6.34984 2.96574C6.2573 3.01947 6.17858 3.09407 6.11995 3.18359C6.06132 3.2731 6.02439 3.37507 6.01211 3.48137L5.78523 5.52324C5.69586 5.6086 5.60992 5.69454 5.52742 5.78106L3.48383 6.01567C3.37744 6.02804 3.27542 6.0651 3.1859 6.12389C3.09639 6.18267 3.02183 6.26156 2.9682 6.35426C2.55857 7.06166 2.24446 7.82024 2.03406 8.61011C2.00638 8.7142 2.00356 8.82338 2.0258 8.9287C2.04804 9.03409 2.09473 9.13282 2.16211 9.21683L3.43742 10.8144C3.43742 10.9382 3.43742 11.0619 3.43742 11.1857L2.15781 12.7876C2.09058 12.8717 2.04404 12.9704 2.02195 13.0758C1.99986 13.1812 2.00283 13.2902 2.03062 13.3943C2.24081 14.1844 2.55524 14.9429 2.96562 15.6501C3.01935 15.7426 3.09394 15.8214 3.18346 15.88C3.27298 15.9387 3.37495 15.9756 3.48125 15.9879L5.51969 16.2148C5.60505 16.3041 5.69098 16.3901 5.7775 16.4726L6.01554 18.5162C6.02792 18.6225 6.06498 18.7245 6.12376 18.8141C6.18255 18.9036 6.26144 18.9781 6.35414 19.0318C7.06154 19.4414 7.82012 19.7555 8.60999 19.9659C8.71408 19.9936 8.82325 19.9964 8.92858 19.9741C9.03397 19.9519 9.1327 19.9053 9.21671 19.8379L10.8143 18.5626C10.9381 18.566 11.0618 18.566 11.1856 18.5626L12.7874 19.8448C12.8715 19.9119 12.9703 19.9585 13.0756 19.9806C13.181 20.0027 13.2901 19.9997 13.3942 19.9719C14.1842 19.7617 14.9428 19.4473 15.65 19.0369C15.7425 18.9832 15.8212 18.9086 15.8799 18.8191C15.9385 18.7296 15.9755 18.6276 15.9878 18.5213L16.2146 16.4829C16.304 16.398 16.3899 16.3121 16.4724 16.2251L18.516 15.9844C18.6224 15.9721 18.7244 15.935 18.8139 15.8762C18.9034 15.8174 18.978 15.7385 19.0317 15.6459C19.4413 14.9384 19.7554 14.1799 19.9658 13.39C19.9935 13.2859 19.9963 13.1768 19.974 13.0714C19.9518 12.966 19.9051 12.8673 19.8378 12.7832L18.5624 11.1857ZM17.1789 10.6271C17.1934 10.8755 17.1934 11.1246 17.1789 11.373C17.1686 11.5431 17.2219 11.7109 17.3284 11.844L18.5478 13.3676C18.4079 13.8123 18.2287 14.2437 18.0124 14.6567L16.0703 14.8767C15.9011 14.8954 15.7449 14.9763 15.632 15.1035C15.4665 15.2896 15.2904 15.4658 15.1043 15.6312C14.977 15.7442 14.8962 15.9004 14.8774 16.0695L14.6617 18.01C14.2488 18.2264 13.8174 18.4055 13.3726 18.5454L11.8481 17.3259C11.7262 17.2284 11.5746 17.1754 11.4184 17.1755H11.3772C11.1288 17.1901 10.8797 17.1901 10.6312 17.1755C10.4612 17.1653 10.2933 17.2186 10.1603 17.3251L8.63233 18.5454C8.18766 18.4054 7.75625 18.2262 7.34327 18.01L7.12327 16.0704C7.1045 15.9012 7.02365 15.7451 6.8964 15.6321C6.71035 15.4666 6.53417 15.2905 6.36875 15.1044C6.25576 14.9771 6.09961 14.8963 5.93047 14.8776L3.99 14.661C3.7736 14.248 3.59442 13.8166 3.45461 13.3719L4.67406 11.8474C4.78054 11.7144 4.83383 11.5466 4.82359 11.3765C4.80898 11.128 4.80898 10.8789 4.82359 10.6305C4.83383 10.4605 4.78054 10.2926 4.67406 10.1596L3.45461 8.63246C3.59453 8.18778 3.7737 7.75638 3.99 7.34339L5.92961 7.12339C6.09875 7.10463 6.2549 7.02378 6.36789 6.89652C6.53331 6.71047 6.70949 6.53429 6.89557 6.36887C7.02331 6.25582 7.1045 6.09929 7.12327 5.92973L7.33901 3.99012C7.75192 3.77372 8.18333 3.59455 8.62807 3.45473L10.1526 4.67418C10.2856 4.78066 10.4535 4.83395 10.6235 4.82371C10.8719 4.8091 11.121 4.8091 11.3695 4.82371C11.5396 4.83395 11.7074 4.78066 11.8404 4.67418L13.3675 3.45473C13.8122 3.59466 14.2436 3.77383 14.6566 3.99012L14.8766 5.92973C14.8953 6.09887 14.9762 6.25503 15.1034 6.36801C15.2895 6.53343 15.4657 6.70962 15.6311 6.89569C15.744 7.02295 15.9002 7.10373 16.0694 7.12257L18.0098 7.33824C18.2263 7.75115 18.4054 8.18256 18.5453 8.6273L17.3258 10.1518C17.2182 10.286 17.1649 10.4556 17.1762 10.6271H17.1789Z" fill="#BCBCBC"/>
</svg>
