<svg xmlns="http://www.w3.org/2000/svg" xmlns:xlink="http://www.w3.org/1999/xlink" width="400" zoomAndPan="magnify" viewBox="0 0 300 149.999998" height="200" preserveAspectRatio="xMidYMid meet" version="1.0"><defs><g/></defs><g fill="#d32f23" fill-opacity="0.4196"><g transform="translate(10.816752, 69.727596)"><g><path d="M 1.65625 0 C 1.320312 0 1.054688 -0.109375 0.859375 -0.328125 C 0.671875 -0.554688 0.609375 -0.863281 0.671875 -1.25 L 7.46875 -56.875 C 7.53125 -57.257812 7.679688 -57.5625 7.921875 -57.78125 C 8.171875 -58.007812 8.460938 -58.125 8.796875 -58.125 L 21.59375 -58.125 C 21.925781 -58.125 22.1875 -58.007812 22.375 -57.78125 C 22.570312 -57.5625 22.640625 -57.257812 22.578125 -56.875 L 17.359375 -13.78125 C 17.242188 -13.507812 17.351562 -13.375 17.6875 -13.375 L 33.46875 -13.375 C 33.851562 -13.375 34.140625 -13.257812 34.328125 -13.03125 C 34.523438 -12.8125 34.597656 -12.507812 34.546875 -12.125 L 33.21875 -1.25 C 33.050781 -0.414062 32.578125 0 31.796875 0 Z M 1.65625 0 "/></g></g></g><g fill="#d32f23" fill-opacity="0.4196"><g transform="translate(46.765165, 69.727596)"><g><path d="M 17.6875 0.671875 C 12.925781 0.671875 9.160156 -0.679688 6.390625 -3.390625 C 3.617188 -6.109375 2.234375 -9.765625 2.234375 -14.359375 C 2.234375 -14.972656 2.289062 -15.941406 2.40625 -17.265625 L 7.3125 -56.875 C 7.363281 -57.257812 7.515625 -57.5625 7.765625 -57.78125 C 8.015625 -58.007812 8.304688 -58.125 8.640625 -58.125 L 21.421875 -58.125 C 21.753906 -58.125 22.015625 -58.007812 22.203125 -57.78125 C 22.398438 -57.5625 22.472656 -57.257812 22.421875 -56.875 L 17.4375 -15.78125 C 17.320312 -14.832031 17.429688 -14.082031 17.765625 -13.53125 C 18.097656 -12.976562 18.625 -12.703125 19.34375 -12.703125 C 20.0625 -12.703125 20.65625 -12.976562 21.125 -13.53125 C 21.601562 -14.082031 21.894531 -14.832031 22 -15.78125 L 27.0625 -56.875 C 27.125 -57.257812 27.265625 -57.5625 27.484375 -57.78125 C 27.703125 -58.007812 28.003906 -58.125 28.390625 -58.125 L 41.09375 -58.125 C 41.488281 -58.125 41.78125 -58.007812 41.96875 -57.78125 C 42.164062 -57.5625 42.238281 -57.257812 42.1875 -56.875 L 37.28125 -17.265625 C 36.832031 -13.722656 35.722656 -10.59375 33.953125 -7.875 C 32.179688 -5.164062 29.882812 -3.0625 27.0625 -1.5625 C 24.238281 -0.0703125 21.113281 0.671875 17.6875 0.671875 Z M 17.6875 0.671875 "/></g></g></g><g fill="#d32f23" fill-opacity="0.4196"><g transform="translate(85.536315, 69.727596)"><g><path d="M 17.515625 0.671875 C 12.703125 0.671875 8.894531 -0.65625 6.09375 -3.3125 C 3.300781 -5.976562 1.90625 -9.609375 1.90625 -14.203125 C 1.90625 -14.753906 1.960938 -15.691406 2.078125 -17.015625 L 5.0625 -41.265625 C 5.726562 -46.640625 7.859375 -50.898438 11.453125 -54.046875 C 15.054688 -57.203125 19.515625 -58.78125 24.828125 -58.78125 C 29.640625 -58.78125 33.457031 -57.460938 36.28125 -54.828125 C 39.101562 -52.203125 40.515625 -48.59375 40.515625 -44 C 40.515625 -43.507812 40.460938 -42.597656 40.359375 -41.265625 L 40.265625 -40.84375 C 40.210938 -40.457031 40.0625 -40.140625 39.8125 -39.890625 C 39.5625 -39.640625 39.269531 -39.515625 38.9375 -39.515625 L 26.15625 -39.109375 C 25.320312 -39.109375 24.960938 -39.492188 25.078125 -40.265625 L 25.328125 -42.34375 C 25.429688 -43.28125 25.289062 -44.023438 24.90625 -44.578125 C 24.519531 -45.140625 23.96875 -45.421875 23.25 -45.421875 C 22.476562 -45.421875 21.828125 -45.140625 21.296875 -44.578125 C 20.773438 -44.023438 20.457031 -43.28125 20.34375 -42.34375 L 17.109375 -15.6875 C 16.992188 -14.800781 17.113281 -14.082031 17.46875 -13.53125 C 17.832031 -12.976562 18.40625 -12.703125 19.1875 -12.703125 C 19.957031 -12.703125 20.601562 -12.960938 21.125 -13.484375 C 21.65625 -14.015625 21.976562 -14.75 22.09375 -15.6875 L 22.328125 -17.9375 C 22.390625 -18.320312 22.546875 -18.609375 22.796875 -18.796875 C 23.046875 -18.992188 23.332031 -19.09375 23.65625 -19.09375 L 36.375 -18.6875 C 36.757812 -18.6875 37.046875 -18.5625 37.234375 -18.3125 C 37.429688 -18.0625 37.503906 -17.742188 37.453125 -17.359375 L 37.359375 -17.015625 C 36.703125 -11.648438 34.554688 -7.359375 30.921875 -4.140625 C 27.296875 -0.929688 22.828125 0.671875 17.515625 0.671875 Z M 17.515625 0.671875 "/></g></g></g><g fill="#d32f23" fill-opacity="0.4196"><g transform="translate(123.89236, 69.727596)"><g><path d="M 1.65625 0 C 1.320312 0 1.054688 -0.109375 0.859375 -0.328125 C 0.671875 -0.554688 0.609375 -0.863281 0.671875 -1.25 L 7.46875 -56.875 C 7.53125 -57.257812 7.679688 -57.5625 7.921875 -57.78125 C 8.171875 -58.007812 8.460938 -58.125 8.796875 -58.125 L 21.59375 -58.125 C 21.925781 -58.125 22.1875 -58.007812 22.375 -57.78125 C 22.570312 -57.5625 22.640625 -57.257812 22.578125 -56.875 L 20.59375 -40.1875 C 20.539062 -39.96875 20.566406 -39.859375 20.671875 -39.859375 C 20.785156 -39.859375 20.894531 -39.941406 21 -40.109375 L 29.96875 -57.125 C 30.300781 -57.789062 30.828125 -58.125 31.546875 -58.125 L 44.84375 -58.125 C 45.5 -58.125 45.828125 -57.875 45.828125 -57.375 C 45.828125 -57.15625 45.742188 -56.90625 45.578125 -56.625 L 31.21875 -32.046875 C 31.164062 -31.828125 31.140625 -31.660156 31.140625 -31.546875 L 39.1875 -1.40625 L 39.1875 -1.078125 C 39.1875 -0.359375 38.800781 0 38.03125 0 L 24.65625 0 C 23.9375 0 23.492188 -0.332031 23.328125 -1 L 19.09375 -18.09375 C 19.09375 -18.257812 19.035156 -18.359375 18.921875 -18.390625 C 18.816406 -18.421875 18.738281 -18.320312 18.6875 -18.09375 L 17.6875 -16.28125 L 17.609375 -15.78125 L 15.78125 -1.25 C 15.71875 -0.863281 15.5625 -0.554688 15.3125 -0.328125 C 15.070312 -0.109375 14.785156 0 14.453125 0 Z M 1.65625 0 "/></g></g></g><g fill="#d32f23" fill-opacity="0.4196"><g transform="translate(165.486257, 69.727596)"><g><path d="M 12.453125 -0.171875 C 12.066406 -0.171875 11.773438 -0.28125 11.578125 -0.5 C 11.390625 -0.71875 11.320312 -1.019531 11.375 -1.40625 L 13.703125 -20.59375 C 13.753906 -20.695312 13.753906 -20.863281 13.703125 -21.09375 L 6.8125 -56.703125 L 6.8125 -57.046875 C 6.8125 -57.765625 7.195312 -58.125 7.96875 -58.125 L 21.34375 -58.125 C 22.113281 -58.125 22.523438 -57.765625 22.578125 -57.046875 L 23.578125 -40.359375 C 23.578125 -40.191406 23.644531 -40.109375 23.78125 -40.109375 C 23.925781 -40.109375 24.023438 -40.191406 24.078125 -40.359375 L 29.140625 -57.046875 C 29.359375 -57.765625 29.859375 -58.125 30.640625 -58.125 L 44 -58.125 C 44.445312 -58.125 44.738281 -58 44.875 -57.75 C 45.007812 -57.5 45 -57.148438 44.84375 -56.703125 L 28.984375 -21.09375 L 28.890625 -20.59375 L 26.484375 -1.40625 C 26.429688 -1.019531 26.289062 -0.71875 26.0625 -0.5 C 25.84375 -0.28125 25.539062 -0.171875 25.15625 -0.171875 Z M 12.453125 -0.171875 "/></g></g></g><g fill="#fff697" fill-opacity="1"><g transform="translate(8.348598, 67.50526)"><g><path d="M 1.65625 0 C 1.320312 0 1.054688 -0.109375 0.859375 -0.328125 C 0.671875 -0.554688 0.609375 -0.863281 0.671875 -1.25 L 7.46875 -56.875 C 7.53125 -57.257812 7.679688 -57.5625 7.921875 -57.78125 C 8.171875 -58.007812 8.460938 -58.125 8.796875 -58.125 L 21.59375 -58.125 C 21.925781 -58.125 22.1875 -58.007812 22.375 -57.78125 C 22.570312 -57.5625 22.640625 -57.257812 22.578125 -56.875 L 17.359375 -13.78125 C 17.242188 -13.507812 17.351562 -13.375 17.6875 -13.375 L 33.46875 -13.375 C 33.851562 -13.375 34.140625 -13.257812 34.328125 -13.03125 C 34.523438 -12.8125 34.597656 -12.507812 34.546875 -12.125 L 33.21875 -1.25 C 33.050781 -0.414062 32.578125 0 31.796875 0 Z M 1.65625 0 "/></g></g></g><g fill="#fff697" fill-opacity="1"><g transform="translate(44.297011, 67.50526)"><g><path d="M 17.6875 0.671875 C 12.925781 0.671875 9.160156 -0.679688 6.390625 -3.390625 C 3.617188 -6.109375 2.234375 -9.765625 2.234375 -14.359375 C 2.234375 -14.972656 2.289062 -15.941406 2.40625 -17.265625 L 7.3125 -56.875 C 7.363281 -57.257812 7.515625 -57.5625 7.765625 -57.78125 C 8.015625 -58.007812 8.304688 -58.125 8.640625 -58.125 L 21.421875 -58.125 C 21.753906 -58.125 22.015625 -58.007812 22.203125 -57.78125 C 22.398438 -57.5625 22.472656 -57.257812 22.421875 -56.875 L 17.4375 -15.78125 C 17.320312 -14.832031 17.429688 -14.082031 17.765625 -13.53125 C 18.097656 -12.976562 18.625 -12.703125 19.34375 -12.703125 C 20.0625 -12.703125 20.65625 -12.976562 21.125 -13.53125 C 21.601562 -14.082031 21.894531 -14.832031 22 -15.78125 L 27.0625 -56.875 C 27.125 -57.257812 27.265625 -57.5625 27.484375 -57.78125 C 27.703125 -58.007812 28.003906 -58.125 28.390625 -58.125 L 41.09375 -58.125 C 41.488281 -58.125 41.78125 -58.007812 41.96875 -57.78125 C 42.164062 -57.5625 42.238281 -57.257812 42.1875 -56.875 L 37.28125 -17.265625 C 36.832031 -13.722656 35.722656 -10.59375 33.953125 -7.875 C 32.179688 -5.164062 29.882812 -3.0625 27.0625 -1.5625 C 24.238281 -0.0703125 21.113281 0.671875 17.6875 0.671875 Z M 17.6875 0.671875 "/></g></g></g><g fill="#fff697" fill-opacity="1"><g transform="translate(83.06816, 67.50526)"><g><path d="M 17.515625 0.671875 C 12.703125 0.671875 8.894531 -0.65625 6.09375 -3.3125 C 3.300781 -5.976562 1.90625 -9.609375 1.90625 -14.203125 C 1.90625 -14.753906 1.960938 -15.691406 2.078125 -17.015625 L 5.0625 -41.265625 C 5.726562 -46.640625 7.859375 -50.898438 11.453125 -54.046875 C 15.054688 -57.203125 19.515625 -58.78125 24.828125 -58.78125 C 29.640625 -58.78125 33.457031 -57.460938 36.28125 -54.828125 C 39.101562 -52.203125 40.515625 -48.59375 40.515625 -44 C 40.515625 -43.507812 40.460938 -42.597656 40.359375 -41.265625 L 40.265625 -40.84375 C 40.210938 -40.457031 40.0625 -40.140625 39.8125 -39.890625 C 39.5625 -39.640625 39.269531 -39.515625 38.9375 -39.515625 L 26.15625 -39.109375 C 25.320312 -39.109375 24.960938 -39.492188 25.078125 -40.265625 L 25.328125 -42.34375 C 25.429688 -43.28125 25.289062 -44.023438 24.90625 -44.578125 C 24.519531 -45.140625 23.96875 -45.421875 23.25 -45.421875 C 22.476562 -45.421875 21.828125 -45.140625 21.296875 -44.578125 C 20.773438 -44.023438 20.457031 -43.28125 20.34375 -42.34375 L 17.109375 -15.6875 C 16.992188 -14.800781 17.113281 -14.082031 17.46875 -13.53125 C 17.832031 -12.976562 18.40625 -12.703125 19.1875 -12.703125 C 19.957031 -12.703125 20.601562 -12.960938 21.125 -13.484375 C 21.65625 -14.015625 21.976562 -14.75 22.09375 -15.6875 L 22.328125 -17.9375 C 22.390625 -18.320312 22.546875 -18.609375 22.796875 -18.796875 C 23.046875 -18.992188 23.332031 -19.09375 23.65625 -19.09375 L 36.375 -18.6875 C 36.757812 -18.6875 37.046875 -18.5625 37.234375 -18.3125 C 37.429688 -18.0625 37.503906 -17.742188 37.453125 -17.359375 L 37.359375 -17.015625 C 36.703125 -11.648438 34.554688 -7.359375 30.921875 -4.140625 C 27.296875 -0.929688 22.828125 0.671875 17.515625 0.671875 Z M 17.515625 0.671875 "/></g></g></g><g fill="#fff697" fill-opacity="1"><g transform="translate(121.424205, 67.50526)"><g><path d="M 1.65625 0 C 1.320312 0 1.054688 -0.109375 0.859375 -0.328125 C 0.671875 -0.554688 0.609375 -0.863281 0.671875 -1.25 L 7.46875 -56.875 C 7.53125 -57.257812 7.679688 -57.5625 7.921875 -57.78125 C 8.171875 -58.007812 8.460938 -58.125 8.796875 -58.125 L 21.59375 -58.125 C 21.925781 -58.125 22.1875 -58.007812 22.375 -57.78125 C 22.570312 -57.5625 22.640625 -57.257812 22.578125 -56.875 L 20.59375 -40.1875 C 20.539062 -39.96875 20.566406 -39.859375 20.671875 -39.859375 C 20.785156 -39.859375 20.894531 -39.941406 21 -40.109375 L 29.96875 -57.125 C 30.300781 -57.789062 30.828125 -58.125 31.546875 -58.125 L 44.84375 -58.125 C 45.5 -58.125 45.828125 -57.875 45.828125 -57.375 C 45.828125 -57.15625 45.742188 -56.90625 45.578125 -56.625 L 31.21875 -32.046875 C 31.164062 -31.828125 31.140625 -31.660156 31.140625 -31.546875 L 39.1875 -1.40625 L 39.1875 -1.078125 C 39.1875 -0.359375 38.800781 0 38.03125 0 L 24.65625 0 C 23.9375 0 23.492188 -0.332031 23.328125 -1 L 19.09375 -18.09375 C 19.09375 -18.257812 19.035156 -18.359375 18.921875 -18.390625 C 18.816406 -18.421875 18.738281 -18.320312 18.6875 -18.09375 L 17.6875 -16.28125 L 17.609375 -15.78125 L 15.78125 -1.25 C 15.71875 -0.863281 15.5625 -0.554688 15.3125 -0.328125 C 15.070312 -0.109375 14.785156 0 14.453125 0 Z M 1.65625 0 "/></g></g></g><g fill="#fff697" fill-opacity="1"><g transform="translate(163.018102, 67.50526)"><g><path d="M 12.453125 -0.171875 C 12.066406 -0.171875 11.773438 -0.28125 11.578125 -0.5 C 11.390625 -0.71875 11.320312 -1.019531 11.375 -1.40625 L 13.703125 -20.59375 C 13.753906 -20.695312 13.753906 -20.863281 13.703125 -21.09375 L 6.8125 -56.703125 L 6.8125 -57.046875 C 6.8125 -57.765625 7.195312 -58.125 7.96875 -58.125 L 21.34375 -58.125 C 22.113281 -58.125 22.523438 -57.765625 22.578125 -57.046875 L 23.578125 -40.359375 C 23.578125 -40.191406 23.644531 -40.109375 23.78125 -40.109375 C 23.925781 -40.109375 24.023438 -40.191406 24.078125 -40.359375 L 29.140625 -57.046875 C 29.359375 -57.765625 29.859375 -58.125 30.640625 -58.125 L 44 -58.125 C 44.445312 -58.125 44.738281 -58 44.875 -57.75 C 45.007812 -57.5 45 -57.148438 44.84375 -56.703125 L 28.984375 -21.09375 L 28.890625 -20.59375 L 26.484375 -1.40625 C 26.429688 -1.019531 26.289062 -0.71875 26.0625 -0.5 C 25.84375 -0.28125 25.539062 -0.171875 25.15625 -0.171875 Z M 12.453125 -0.171875 "/></g></g></g><g fill="#d32f23" fill-opacity="0.4196"><g transform="translate(10.816752, 135.616186)"><g><path d="M 27.3125 -56.875 C 27.375 -57.257812 27.515625 -57.5625 27.734375 -57.78125 C 27.953125 -58.007812 28.253906 -58.125 28.640625 -58.125 L 41.34375 -58.125 C 41.738281 -58.125 42.03125 -58.007812 42.21875 -57.78125 C 42.414062 -57.5625 42.484375 -57.257812 42.421875 -56.875 L 35.625 -1.25 C 35.5625 -0.863281 35.40625 -0.554688 35.15625 -0.328125 C 34.914062 -0.109375 34.597656 0 34.203125 0 L 21.5 0 C 21.113281 0 20.820312 -0.109375 20.625 -0.328125 C 20.4375 -0.554688 20.367188 -0.863281 20.421875 -1.25 L 23 -22 C 23 -22.28125 22.890625 -22.421875 22.671875 -22.421875 L 18.765625 -22.421875 C 18.484375 -22.421875 18.34375 -22.28125 18.34375 -22 L 15.78125 -1.25 C 15.71875 -0.863281 15.5625 -0.554688 15.3125 -0.328125 C 15.070312 -0.109375 14.785156 0 14.453125 0 L 1.65625 0 C 1.320312 0 1.054688 -0.109375 0.859375 -0.328125 C 0.671875 -0.554688 0.609375 -0.863281 0.671875 -1.25 L 7.46875 -56.875 C 7.53125 -57.257812 7.679688 -57.5625 7.921875 -57.78125 C 8.171875 -58.007812 8.460938 -58.125 8.796875 -58.125 L 21.59375 -58.125 C 21.925781 -58.125 22.1875 -58.007812 22.375 -57.78125 C 22.570312 -57.5625 22.640625 -57.257812 22.578125 -56.875 L 20.09375 -36.203125 C 19.976562 -35.921875 20.085938 -35.78125 20.421875 -35.78125 L 24.328125 -35.78125 C 24.441406 -35.78125 24.539062 -35.820312 24.625 -35.90625 C 24.707031 -35.988281 24.75 -36.085938 24.75 -36.203125 Z M 27.3125 -56.875 "/></g></g></g><g fill="#d32f23" fill-opacity="0.4196"><g transform="translate(49.919995, 135.616186)"><g><path d="M 25.828125 0 C 25.046875 0 24.6875 -0.382812 24.75 -1.15625 L 24.578125 -7.46875 C 24.628906 -7.582031 24.597656 -7.679688 24.484375 -7.765625 C 24.378906 -7.847656 24.269531 -7.890625 24.15625 -7.890625 L 16.9375 -7.890625 C 16.65625 -7.890625 16.460938 -7.75 16.359375 -7.46875 L 14.78125 -1.15625 C 14.613281 -0.382812 14.144531 0 13.375 0 L 0.75 0 C -0.0820312 0 -0.390625 -0.441406 -0.171875 -1.328125 L 18.09375 -57.046875 C 18.320312 -57.765625 18.820312 -58.125 19.59375 -58.125 L 34.296875 -58.125 C 35.066406 -58.125 35.476562 -57.765625 35.53125 -57.046875 L 40.109375 -1.328125 L 40.109375 -1.15625 C 40.109375 -0.382812 39.691406 0 38.859375 0 Z M 19.765625 -20.265625 C 19.648438 -19.984375 19.734375 -19.84375 20.015625 -19.84375 L 23.90625 -19.84375 C 24.070312 -19.84375 24.210938 -19.984375 24.328125 -20.265625 L 24 -35.625 C 24 -35.84375 23.925781 -35.9375 23.78125 -35.90625 C 23.644531 -35.882812 23.578125 -35.789062 23.578125 -35.625 Z M 19.765625 -20.265625 "/></g></g></g><g fill="#d32f23" fill-opacity="0.4196"><g transform="translate(92.676196, 135.616186)"><g><path d="M 34.125 -57.203125 C 34.457031 -57.816406 34.957031 -58.125 35.625 -58.125 L 48.234375 -58.125 C 48.566406 -58.125 48.832031 -58.007812 49.03125 -57.78125 C 49.226562 -57.5625 49.296875 -57.257812 49.234375 -56.875 L 42.421875 -1.25 C 42.367188 -0.863281 42.21875 -0.554688 41.96875 -0.328125 C 41.71875 -0.109375 41.425781 0 41.09375 0 L 28.3125 0 C 27.976562 0 27.710938 -0.109375 27.515625 -0.328125 C 27.328125 -0.554688 27.257812 -0.863281 27.3125 -1.25 L 31.46875 -35.203125 C 31.519531 -35.421875 31.476562 -35.546875 31.34375 -35.578125 C 31.207031 -35.609375 31.082031 -35.539062 30.96875 -35.375 L 25.328125 -27.234375 L 24.328125 -25.734375 L 24.25 -25.734375 L 20.015625 -35.375 C 19.953125 -35.539062 19.863281 -35.609375 19.75 -35.578125 C 19.644531 -35.546875 19.566406 -35.421875 19.515625 -35.203125 L 15.359375 -1.25 C 15.304688 -0.863281 15.164062 -0.554688 14.9375 -0.328125 C 14.71875 -0.109375 14.414062 0 14.03125 0 L 1.328125 0 C 0.941406 0 0.648438 -0.109375 0.453125 -0.328125 C 0.265625 -0.554688 0.195312 -0.863281 0.25 -1.25 L 7.0625 -56.875 C 7.113281 -57.257812 7.265625 -57.5625 7.515625 -57.78125 C 7.765625 -58.007812 8.054688 -58.125 8.390625 -58.125 L 21 -58.125 C 21.664062 -58.125 22.109375 -57.816406 22.328125 -57.203125 L 26.734375 -46.421875 C 26.847656 -46.191406 27.015625 -46.191406 27.234375 -46.421875 Z M 34.125 -57.203125 "/></g></g></g><g fill="#d32f23" fill-opacity="0.4196"><g transform="translate(138.255134, 135.616186)"><g><path d="M 17.265625 0.671875 C 12.503906 0.671875 8.738281 -0.554688 5.96875 -3.015625 C 3.207031 -5.484375 1.828125 -8.769531 1.828125 -12.875 C 1.828125 -13.257812 1.882812 -13.953125 2 -14.953125 L 2.328125 -17.515625 C 2.378906 -17.898438 2.53125 -18.203125 2.78125 -18.421875 C 3.03125 -18.648438 3.320312 -18.765625 3.65625 -18.765625 L 16.28125 -18.765625 C 16.601562 -18.765625 16.863281 -18.648438 17.0625 -18.421875 C 17.257812 -18.203125 17.328125 -17.898438 17.265625 -17.515625 L 17.109375 -15.6875 C 16.992188 -14.800781 17.101562 -14.082031 17.4375 -13.53125 C 17.769531 -12.976562 18.269531 -12.703125 18.9375 -12.703125 C 19.65625 -12.703125 20.257812 -13.003906 20.75 -13.609375 C 21.25 -14.222656 21.5 -14.972656 21.5 -15.859375 C 21.5 -16.691406 21.097656 -17.550781 20.296875 -18.4375 C 19.492188 -19.320312 17.957031 -20.675781 15.6875 -22.5 C 13.476562 -24.320312 11.648438 -25.9375 10.203125 -27.34375 C 8.765625 -28.757812 7.519531 -30.503906 6.46875 -32.578125 C 5.425781 -34.660156 4.90625 -37.03125 4.90625 -39.6875 C 4.90625 -40.1875 4.957031 -41.046875 5.0625 -42.265625 C 5.675781 -47.191406 7.722656 -51.175781 11.203125 -54.21875 C 14.691406 -57.257812 19.039062 -58.78125 24.25 -58.78125 C 29.007812 -58.78125 32.757812 -57.503906 35.5 -54.953125 C 38.238281 -52.410156 39.609375 -48.984375 39.609375 -44.671875 C 39.609375 -44.171875 39.550781 -43.367188 39.4375 -42.265625 L 39.1875 -40.4375 C 39.132812 -40.050781 38.984375 -39.742188 38.734375 -39.515625 C 38.484375 -39.296875 38.191406 -39.1875 37.859375 -39.1875 L 25.328125 -39.1875 C 24.992188 -39.1875 24.726562 -39.296875 24.53125 -39.515625 C 24.34375 -39.742188 24.273438 -40.050781 24.328125 -40.4375 L 24.578125 -42.59375 C 24.628906 -43.425781 24.472656 -44.101562 24.109375 -44.625 C 23.753906 -45.15625 23.242188 -45.421875 22.578125 -45.421875 C 21.804688 -45.421875 21.171875 -45.085938 20.671875 -44.421875 C 20.171875 -43.753906 19.921875 -42.867188 19.921875 -41.765625 C 19.921875 -40.828125 20.304688 -39.859375 21.078125 -38.859375 C 21.859375 -37.859375 23.300781 -36.472656 25.40625 -34.703125 C 28.226562 -32.328125 30.382812 -30.40625 31.875 -28.9375 C 33.375 -27.46875 34.550781 -25.859375 35.40625 -24.109375 C 36.269531 -22.367188 36.703125 -20.394531 36.703125 -18.1875 C 36.703125 -17.738281 36.644531 -16.960938 36.53125 -15.859375 C 35.863281 -10.816406 33.773438 -6.800781 30.265625 -3.8125 C 26.753906 -0.820312 22.421875 0.671875 17.265625 0.671875 Z M 17.265625 0.671875 "/></g></g></g><g fill="#d32f23" fill-opacity="0.4196"><g transform="translate(175.531898, 135.616186)"><g><path d="M 43.09375 -58.125 C 43.425781 -58.125 43.6875 -58.007812 43.875 -57.78125 C 44.070312 -57.5625 44.144531 -57.257812 44.09375 -56.875 L 42.765625 -46 C 42.703125 -45.613281 42.5625 -45.304688 42.34375 -45.078125 C 42.125 -44.859375 41.820312 -44.75 41.4375 -44.75 L 31.796875 -44.75 C 31.523438 -44.75 31.390625 -44.613281 31.390625 -44.34375 L 26.078125 -1.25 C 26.015625 -0.863281 25.875 -0.554688 25.65625 -0.328125 C 25.4375 -0.109375 25.132812 0 24.75 0 L 12.046875 0 C 11.648438 0 11.351562 -0.109375 11.15625 -0.328125 C 10.96875 -0.554688 10.898438 -0.863281 10.953125 -1.25 L 16.28125 -44.34375 C 16.28125 -44.613281 16.140625 -44.75 15.859375 -44.75 L 6.5625 -44.75 C 6.175781 -44.75 5.882812 -44.859375 5.6875 -45.078125 C 5.488281 -45.304688 5.421875 -45.613281 5.484375 -46 L 6.8125 -56.875 C 6.863281 -57.257812 7.015625 -57.5625 7.265625 -57.78125 C 7.515625 -58.007812 7.832031 -58.125 8.21875 -58.125 Z M 43.09375 -58.125 "/></g></g></g><g fill="#d32f23" fill-opacity="0.4196"><g transform="translate(215.714422, 135.616186)"><g><path d="M 38.359375 -46 C 38.304688 -45.613281 38.15625 -45.304688 37.90625 -45.078125 C 37.65625 -44.859375 37.335938 -44.75 36.953125 -44.75 L 21.5 -44.75 C 21.226562 -44.75 21.09375 -44.613281 21.09375 -44.34375 L 20.09375 -36.203125 C 19.976562 -35.921875 20.085938 -35.78125 20.421875 -35.78125 L 28.484375 -35.78125 C 28.867188 -35.78125 29.15625 -35.671875 29.34375 -35.453125 C 29.539062 -35.234375 29.613281 -34.929688 29.5625 -34.546875 L 28.234375 -23.65625 C 28.066406 -22.832031 27.59375 -22.421875 26.8125 -22.421875 L 18.765625 -22.421875 C 18.484375 -22.421875 18.34375 -22.28125 18.34375 -22 L 17.359375 -13.78125 C 17.242188 -13.507812 17.351562 -13.375 17.6875 -13.375 L 33.125 -13.375 C 33.507812 -13.375 33.800781 -13.257812 34 -13.03125 C 34.195312 -12.8125 34.265625 -12.507812 34.203125 -12.125 L 32.875 -1.25 C 32.820312 -0.863281 32.671875 -0.554688 32.421875 -0.328125 C 32.171875 -0.109375 31.851562 0 31.46875 0 L 1.65625 0 C 1.320312 0 1.054688 -0.109375 0.859375 -0.328125 C 0.671875 -0.554688 0.609375 -0.863281 0.671875 -1.25 L 7.46875 -56.875 C 7.53125 -57.257812 7.679688 -57.5625 7.921875 -57.78125 C 8.171875 -58.007812 8.460938 -58.125 8.796875 -58.125 L 38.609375 -58.125 C 38.992188 -58.125 39.28125 -58.007812 39.46875 -57.78125 C 39.664062 -57.5625 39.738281 -57.257812 39.6875 -56.875 Z M 38.359375 -46 "/></g></g></g><g fill="#d32f23" fill-opacity="0.4196"><g transform="translate(251.496788, 135.616186)"><g><path d="M 22.5 0 C 21.832031 0 21.445312 -0.359375 21.34375 -1.078125 L 18.9375 -22 C 18.9375 -22.21875 18.851562 -22.328125 18.6875 -22.328125 C 18.457031 -22.328125 18.34375 -22.191406 18.34375 -21.921875 L 15.78125 -1.25 C 15.71875 -0.863281 15.5625 -0.554688 15.3125 -0.328125 C 15.070312 -0.109375 14.785156 0 14.453125 0 L 1.65625 0 C 1.320312 0 1.054688 -0.109375 0.859375 -0.328125 C 0.671875 -0.554688 0.609375 -0.863281 0.671875 -1.25 L 7.46875 -56.875 C 7.53125 -57.257812 7.679688 -57.5625 7.921875 -57.78125 C 8.171875 -58.007812 8.460938 -58.125 8.796875 -58.125 L 26.984375 -58.125 C 31.410156 -58.125 34.910156 -56.710938 37.484375 -53.890625 C 40.054688 -51.066406 41.34375 -47.328125 41.34375 -42.671875 C 41.34375 -41.347656 41.289062 -40.328125 41.1875 -39.609375 C 40.800781 -36.566406 39.941406 -33.835938 38.609375 -31.421875 C 37.273438 -29.015625 35.5625 -27.066406 33.46875 -25.578125 C 33.1875 -25.410156 33.101562 -25.21875 33.21875 -25 L 36.78125 -1.40625 L 36.78125 -1.078125 C 36.78125 -0.742188 36.671875 -0.476562 36.453125 -0.28125 C 36.234375 -0.09375 35.957031 0 35.625 0 Z M 21.5 -44.75 C 21.226562 -44.75 21.09375 -44.613281 21.09375 -44.34375 L 19.84375 -34.625 C 19.84375 -34.34375 19.984375 -34.203125 20.265625 -34.203125 L 21.34375 -34.203125 C 22.664062 -34.203125 23.785156 -34.785156 24.703125 -35.953125 C 25.617188 -37.117188 26.078125 -38.722656 26.078125 -40.765625 C 26.078125 -42.035156 25.769531 -43.015625 25.15625 -43.703125 C 24.550781 -44.398438 23.722656 -44.75 22.671875 -44.75 Z M 21.5 -44.75 "/></g></g></g><g fill="#ff1b5e" fill-opacity="1"><g transform="translate(8.348598, 133.39385)"><g><path d="M 27.3125 -56.875 C 27.375 -57.257812 27.515625 -57.5625 27.734375 -57.78125 C 27.953125 -58.007812 28.253906 -58.125 28.640625 -58.125 L 41.34375 -58.125 C 41.738281 -58.125 42.03125 -58.007812 42.21875 -57.78125 C 42.414062 -57.5625 42.484375 -57.257812 42.421875 -56.875 L 35.625 -1.25 C 35.5625 -0.863281 35.40625 -0.554688 35.15625 -0.328125 C 34.914062 -0.109375 34.597656 0 34.203125 0 L 21.5 0 C 21.113281 0 20.820312 -0.109375 20.625 -0.328125 C 20.4375 -0.554688 20.367188 -0.863281 20.421875 -1.25 L 23 -22 C 23 -22.28125 22.890625 -22.421875 22.671875 -22.421875 L 18.765625 -22.421875 C 18.484375 -22.421875 18.34375 -22.28125 18.34375 -22 L 15.78125 -1.25 C 15.71875 -0.863281 15.5625 -0.554688 15.3125 -0.328125 C 15.070312 -0.109375 14.785156 0 14.453125 0 L 1.65625 0 C 1.320312 0 1.054688 -0.109375 0.859375 -0.328125 C 0.671875 -0.554688 0.609375 -0.863281 0.671875 -1.25 L 7.46875 -56.875 C 7.53125 -57.257812 7.679688 -57.5625 7.921875 -57.78125 C 8.171875 -58.007812 8.460938 -58.125 8.796875 -58.125 L 21.59375 -58.125 C 21.925781 -58.125 22.1875 -58.007812 22.375 -57.78125 C 22.570312 -57.5625 22.640625 -57.257812 22.578125 -56.875 L 20.09375 -36.203125 C 19.976562 -35.921875 20.085938 -35.78125 20.421875 -35.78125 L 24.328125 -35.78125 C 24.441406 -35.78125 24.539062 -35.820312 24.625 -35.90625 C 24.707031 -35.988281 24.75 -36.085938 24.75 -36.203125 Z M 27.3125 -56.875 "/></g></g></g><g fill="#ff1b5e" fill-opacity="1"><g transform="translate(47.45184, 133.39385)"><g><path d="M 25.828125 0 C 25.046875 0 24.6875 -0.382812 24.75 -1.15625 L 24.578125 -7.46875 C 24.628906 -7.582031 24.597656 -7.679688 24.484375 -7.765625 C 24.378906 -7.847656 24.269531 -7.890625 24.15625 -7.890625 L 16.9375 -7.890625 C 16.65625 -7.890625 16.460938 -7.75 16.359375 -7.46875 L 14.78125 -1.15625 C 14.613281 -0.382812 14.144531 0 13.375 0 L 0.75 0 C -0.0820312 0 -0.390625 -0.441406 -0.171875 -1.328125 L 18.09375 -57.046875 C 18.320312 -57.765625 18.820312 -58.125 19.59375 -58.125 L 34.296875 -58.125 C 35.066406 -58.125 35.476562 -57.765625 35.53125 -57.046875 L 40.109375 -1.328125 L 40.109375 -1.15625 C 40.109375 -0.382812 39.691406 0 38.859375 0 Z M 19.765625 -20.265625 C 19.648438 -19.984375 19.734375 -19.84375 20.015625 -19.84375 L 23.90625 -19.84375 C 24.070312 -19.84375 24.210938 -19.984375 24.328125 -20.265625 L 24 -35.625 C 24 -35.84375 23.925781 -35.9375 23.78125 -35.90625 C 23.644531 -35.882812 23.578125 -35.789062 23.578125 -35.625 Z M 19.765625 -20.265625 "/></g></g></g><g fill="#ff1b5e" fill-opacity="1"><g transform="translate(90.208042, 133.39385)"><g><path d="M 34.125 -57.203125 C 34.457031 -57.816406 34.957031 -58.125 35.625 -58.125 L 48.234375 -58.125 C 48.566406 -58.125 48.832031 -58.007812 49.03125 -57.78125 C 49.226562 -57.5625 49.296875 -57.257812 49.234375 -56.875 L 42.421875 -1.25 C 42.367188 -0.863281 42.21875 -0.554688 41.96875 -0.328125 C 41.71875 -0.109375 41.425781 0 41.09375 0 L 28.3125 0 C 27.976562 0 27.710938 -0.109375 27.515625 -0.328125 C 27.328125 -0.554688 27.257812 -0.863281 27.3125 -1.25 L 31.46875 -35.203125 C 31.519531 -35.421875 31.476562 -35.546875 31.34375 -35.578125 C 31.207031 -35.609375 31.082031 -35.539062 30.96875 -35.375 L 25.328125 -27.234375 L 24.328125 -25.734375 L 24.25 -25.734375 L 20.015625 -35.375 C 19.953125 -35.539062 19.863281 -35.609375 19.75 -35.578125 C 19.644531 -35.546875 19.566406 -35.421875 19.515625 -35.203125 L 15.359375 -1.25 C 15.304688 -0.863281 15.164062 -0.554688 14.9375 -0.328125 C 14.71875 -0.109375 14.414062 0 14.03125 0 L 1.328125 0 C 0.941406 0 0.648438 -0.109375 0.453125 -0.328125 C 0.265625 -0.554688 0.195312 -0.863281 0.25 -1.25 L 7.0625 -56.875 C 7.113281 -57.257812 7.265625 -57.5625 7.515625 -57.78125 C 7.765625 -58.007812 8.054688 -58.125 8.390625 -58.125 L 21 -58.125 C 21.664062 -58.125 22.109375 -57.816406 22.328125 -57.203125 L 26.734375 -46.421875 C 26.847656 -46.191406 27.015625 -46.191406 27.234375 -46.421875 Z M 34.125 -57.203125 "/></g></g></g><g fill="#ff1b5e" fill-opacity="1"><g transform="translate(135.78698, 133.39385)"><g><path d="M 17.265625 0.671875 C 12.503906 0.671875 8.738281 -0.554688 5.96875 -3.015625 C 3.207031 -5.484375 1.828125 -8.769531 1.828125 -12.875 C 1.828125 -13.257812 1.882812 -13.953125 2 -14.953125 L 2.328125 -17.515625 C 2.378906 -17.898438 2.53125 -18.203125 2.78125 -18.421875 C 3.03125 -18.648438 3.320312 -18.765625 3.65625 -18.765625 L 16.28125 -18.765625 C 16.601562 -18.765625 16.863281 -18.648438 17.0625 -18.421875 C 17.257812 -18.203125 17.328125 -17.898438 17.265625 -17.515625 L 17.109375 -15.6875 C 16.992188 -14.800781 17.101562 -14.082031 17.4375 -13.53125 C 17.769531 -12.976562 18.269531 -12.703125 18.9375 -12.703125 C 19.65625 -12.703125 20.257812 -13.003906 20.75 -13.609375 C 21.25 -14.222656 21.5 -14.972656 21.5 -15.859375 C 21.5 -16.691406 21.097656 -17.550781 20.296875 -18.4375 C 19.492188 -19.320312 17.957031 -20.675781 15.6875 -22.5 C 13.476562 -24.320312 11.648438 -25.9375 10.203125 -27.34375 C 8.765625 -28.757812 7.519531 -30.503906 6.46875 -32.578125 C 5.425781 -34.660156 4.90625 -37.03125 4.90625 -39.6875 C 4.90625 -40.1875 4.957031 -41.046875 5.0625 -42.265625 C 5.675781 -47.191406 7.722656 -51.175781 11.203125 -54.21875 C 14.691406 -57.257812 19.039062 -58.78125 24.25 -58.78125 C 29.007812 -58.78125 32.757812 -57.503906 35.5 -54.953125 C 38.238281 -52.410156 39.609375 -48.984375 39.609375 -44.671875 C 39.609375 -44.171875 39.550781 -43.367188 39.4375 -42.265625 L 39.1875 -40.4375 C 39.132812 -40.050781 38.984375 -39.742188 38.734375 -39.515625 C 38.484375 -39.296875 38.191406 -39.1875 37.859375 -39.1875 L 25.328125 -39.1875 C 24.992188 -39.1875 24.726562 -39.296875 24.53125 -39.515625 C 24.34375 -39.742188 24.273438 -40.050781 24.328125 -40.4375 L 24.578125 -42.59375 C 24.628906 -43.425781 24.472656 -44.101562 24.109375 -44.625 C 23.753906 -45.15625 23.242188 -45.421875 22.578125 -45.421875 C 21.804688 -45.421875 21.171875 -45.085938 20.671875 -44.421875 C 20.171875 -43.753906 19.921875 -42.867188 19.921875 -41.765625 C 19.921875 -40.828125 20.304688 -39.859375 21.078125 -38.859375 C 21.859375 -37.859375 23.300781 -36.472656 25.40625 -34.703125 C 28.226562 -32.328125 30.382812 -30.40625 31.875 -28.9375 C 33.375 -27.46875 34.550781 -25.859375 35.40625 -24.109375 C 36.269531 -22.367188 36.703125 -20.394531 36.703125 -18.1875 C 36.703125 -17.738281 36.644531 -16.960938 36.53125 -15.859375 C 35.863281 -10.816406 33.773438 -6.800781 30.265625 -3.8125 C 26.753906 -0.820312 22.421875 0.671875 17.265625 0.671875 Z M 17.265625 0.671875 "/></g></g></g><g fill="#ff1b5e" fill-opacity="1"><g transform="translate(173.063744, 133.39385)"><g><path d="M 43.09375 -58.125 C 43.425781 -58.125 43.6875 -58.007812 43.875 -57.78125 C 44.070312 -57.5625 44.144531 -57.257812 44.09375 -56.875 L 42.765625 -46 C 42.703125 -45.613281 42.5625 -45.304688 42.34375 -45.078125 C 42.125 -44.859375 41.820312 -44.75 41.4375 -44.75 L 31.796875 -44.75 C 31.523438 -44.75 31.390625 -44.613281 31.390625 -44.34375 L 26.078125 -1.25 C 26.015625 -0.863281 25.875 -0.554688 25.65625 -0.328125 C 25.4375 -0.109375 25.132812 0 24.75 0 L 12.046875 0 C 11.648438 0 11.351562 -0.109375 11.15625 -0.328125 C 10.96875 -0.554688 10.898438 -0.863281 10.953125 -1.25 L 16.28125 -44.34375 C 16.28125 -44.613281 16.140625 -44.75 15.859375 -44.75 L 6.5625 -44.75 C 6.175781 -44.75 5.882812 -44.859375 5.6875 -45.078125 C 5.488281 -45.304688 5.421875 -45.613281 5.484375 -46 L 6.8125 -56.875 C 6.863281 -57.257812 7.015625 -57.5625 7.265625 -57.78125 C 7.515625 -58.007812 7.832031 -58.125 8.21875 -58.125 Z M 43.09375 -58.125 "/></g></g></g><g fill="#ff1b5e" fill-opacity="1"><g transform="translate(213.246267, 133.39385)"><g><path d="M 38.359375 -46 C 38.304688 -45.613281 38.15625 -45.304688 37.90625 -45.078125 C 37.65625 -44.859375 37.335938 -44.75 36.953125 -44.75 L 21.5 -44.75 C 21.226562 -44.75 21.09375 -44.613281 21.09375 -44.34375 L 20.09375 -36.203125 C 19.976562 -35.921875 20.085938 -35.78125 20.421875 -35.78125 L 28.484375 -35.78125 C 28.867188 -35.78125 29.15625 -35.671875 29.34375 -35.453125 C 29.539062 -35.234375 29.613281 -34.929688 29.5625 -34.546875 L 28.234375 -23.65625 C 28.066406 -22.832031 27.59375 -22.421875 26.8125 -22.421875 L 18.765625 -22.421875 C 18.484375 -22.421875 18.34375 -22.28125 18.34375 -22 L 17.359375 -13.78125 C 17.242188 -13.507812 17.351562 -13.375 17.6875 -13.375 L 33.125 -13.375 C 33.507812 -13.375 33.800781 -13.257812 34 -13.03125 C 34.195312 -12.8125 34.265625 -12.507812 34.203125 -12.125 L 32.875 -1.25 C 32.820312 -0.863281 32.671875 -0.554688 32.421875 -0.328125 C 32.171875 -0.109375 31.851562 0 31.46875 0 L 1.65625 0 C 1.320312 0 1.054688 -0.109375 0.859375 -0.328125 C 0.671875 -0.554688 0.609375 -0.863281 0.671875 -1.25 L 7.46875 -56.875 C 7.53125 -57.257812 7.679688 -57.5625 7.921875 -57.78125 C 8.171875 -58.007812 8.460938 -58.125 8.796875 -58.125 L 38.609375 -58.125 C 38.992188 -58.125 39.28125 -58.007812 39.46875 -57.78125 C 39.664062 -57.5625 39.738281 -57.257812 39.6875 -56.875 Z M 38.359375 -46 "/></g></g></g><g fill="#ff1b5e" fill-opacity="1"><g transform="translate(249.028633, 133.39385)"><g><path d="M 22.5 0 C 21.832031 0 21.445312 -0.359375 21.34375 -1.078125 L 18.9375 -22 C 18.9375 -22.21875 18.851562 -22.328125 18.6875 -22.328125 C 18.457031 -22.328125 18.34375 -22.191406 18.34375 -21.921875 L 15.78125 -1.25 C 15.71875 -0.863281 15.5625 -0.554688 15.3125 -0.328125 C 15.070312 -0.109375 14.785156 0 14.453125 0 L 1.65625 0 C 1.320312 0 1.054688 -0.109375 0.859375 -0.328125 C 0.671875 -0.554688 0.609375 -0.863281 0.671875 -1.25 L 7.46875 -56.875 C 7.53125 -57.257812 7.679688 -57.5625 7.921875 -57.78125 C 8.171875 -58.007812 8.460938 -58.125 8.796875 -58.125 L 26.984375 -58.125 C 31.410156 -58.125 34.910156 -56.710938 37.484375 -53.890625 C 40.054688 -51.066406 41.34375 -47.328125 41.34375 -42.671875 C 41.34375 -41.347656 41.289062 -40.328125 41.1875 -39.609375 C 40.800781 -36.566406 39.941406 -33.835938 38.609375 -31.421875 C 37.273438 -29.015625 35.5625 -27.066406 33.46875 -25.578125 C 33.1875 -25.410156 33.101562 -25.21875 33.21875 -25 L 36.78125 -1.40625 L 36.78125 -1.078125 C 36.78125 -0.742188 36.671875 -0.476562 36.453125 -0.28125 C 36.234375 -0.09375 35.957031 0 35.625 0 Z M 21.5 -44.75 C 21.226562 -44.75 21.09375 -44.613281 21.09375 -44.34375 L 19.84375 -34.625 C 19.84375 -34.34375 19.984375 -34.203125 20.265625 -34.203125 L 21.34375 -34.203125 C 22.664062 -34.203125 23.785156 -34.785156 24.703125 -35.953125 C 25.617188 -37.117188 26.078125 -38.722656 26.078125 -40.765625 C 26.078125 -42.035156 25.769531 -43.015625 25.15625 -43.703125 C 24.550781 -44.398438 23.722656 -44.75 22.671875 -44.75 Z M 21.5 -44.75 "/></g></g></g></svg>