<svg width="363" height="250" viewBox="0 0 363 250" fill="none" xmlns="http://www.w3.org/2000/svg">
<rect width="363" height="250" rx="2" fill="#1B1B1B" fill-opacity="0.7"/>
<path d="M193 114H171C170.448 114 170 114.448 170 115V133C170 133.552 170.448 134 171 134H193C193.552 134 194 133.552 194 133V115C194 114.448 193.552 114 193 114Z" stroke="#4B4B4B" stroke-width="1.5" stroke-linecap="round" stroke-linejoin="round"/>
<path d="M170 129L176.288 122.712C176.381 122.618 176.491 122.543 176.614 122.492C176.736 122.44 176.867 122.414 177 122.414C177.133 122.414 177.264 122.44 177.386 122.492C177.509 122.543 177.619 122.618 177.712 122.712L183.288 128.287C183.381 128.382 183.491 128.457 183.614 128.508C183.736 128.559 183.867 128.586 184 128.586C184.133 128.586 184.264 128.559 184.386 128.508C184.509 128.457 184.619 128.382 184.712 128.287L187.288 125.712C187.381 125.618 187.491 125.543 187.614 125.492C187.736 125.44 187.867 125.414 188 125.414C188.133 125.414 188.264 125.44 188.386 125.492C188.509 125.543 188.619 125.618 188.712 125.712L194 131" stroke="#4B4B4B" stroke-width="1.5" stroke-linecap="round" stroke-linejoin="round"/>
<path d="M185.5 121.75C186.19 121.75 186.75 121.19 186.75 120.5C186.75 119.81 186.19 119.25 185.5 119.25C184.81 119.25 184.25 119.81 184.25 120.5C184.25 121.19 184.81 121.75 185.5 121.75Z" fill="#4B4B4B"/>
</svg>
