<svg width="20" height="20" viewBox="0 0 20 20" fill="none" xmlns="http://www.w3.org/2000/svg">
<path d="M18.1484 8.92978L6.89844 2.0626C6.71105 1.94384 6.49463 1.87886 6.27282 1.87472C6.05101 1.87059 5.83232 1.92747 5.64063 2.03916C5.44611 2.14588 5.28395 2.30307 5.17121 2.49417C5.05848 2.68527 4.99933 2.90322 5.00001 3.1251V16.8751C4.99933 17.097 5.05848 17.3149 5.17121 17.506C5.28395 17.6971 5.44611 17.8543 5.64063 17.961C5.83232 18.0727 6.05101 18.1296 6.27282 18.1255C6.49463 18.1213 6.71105 18.0563 6.89844 17.9376L18.1484 11.0704C18.3328 10.9592 18.4854 10.8022 18.5912 10.6147C18.6971 10.4271 18.7527 10.2154 18.7527 10.0001C18.7527 9.78475 18.6971 9.57306 18.5912 9.38554C18.4854 9.19801 18.3328 9.04102 18.1484 8.92978Z" fill="white"/>
</svg>
