<svg width="21" height="20" viewBox="0 0 21 20" fill="none" xmlns="http://www.w3.org/2000/svg">
<path d="M18.5703 2.47653C18.3969 2.3296 18.1869 2.2324 17.9627 2.19525C17.7385 2.15811 17.5084 2.18242 17.2969 2.26559L2.87498 7.92966C2.62203 8.02603 2.40776 8.20288 2.26518 8.43299C2.1226 8.66309 2.05962 8.93368 2.08592 9.20309C2.10939 9.4724 2.21953 9.72684 2.39982 9.92827C2.58012 10.1297 2.82085 10.2672 3.08592 10.3203L6.74998 11.0468V15.625C6.74985 15.8726 6.8233 16.1148 6.961 16.3206C7.0987 16.5265 7.29446 16.6868 7.52342 16.7812C7.67495 16.8422 7.83664 16.874 7.99998 16.875C8.16416 16.8755 8.3268 16.8434 8.47838 16.7803C8.62997 16.7173 8.76746 16.6246 8.8828 16.5078L10.914 14.4843L13.9844 17.1875C14.211 17.3874 14.5024 17.4984 14.8047 17.5C14.9376 17.5027 15.0699 17.4815 15.1953 17.4375C15.4015 17.3722 15.587 17.2543 15.7336 17.0954C15.8802 16.9364 15.9828 16.742 16.0312 16.5312L18.9687 3.70309C19.0201 3.48174 19.0101 3.25057 18.9399 3.03446C18.8697 2.81834 18.7419 2.62545 18.5703 2.47653ZM14.8125 16.25L8.37498 10.5859L17.6484 3.89059L14.8125 16.25Z" fill="white"/>
</svg>
