<svg width="25" height="25" viewBox="0 0 25 25" fill="none" xmlns="http://www.w3.org/2000/svg">
<path d="M12.4998 8.59386C12.4998 6.44542 14.3064 4.65831 16.4549 4.68761C17.2073 4.6963 17.9411 4.9221 18.5683 5.33788C19.1954 5.75366 19.6891 6.34172 19.99 7.03136H23.4373L20.283 10.1857C20.0794 13.3542 18.6768 16.3263 16.3603 18.4976C14.0438 20.669 10.9874 21.8767 7.81229 21.8751C4.6873 21.8751 3.90605 20.7032 3.90605 20.7032C3.90605 20.7032 7.03104 19.5314 8.59354 17.1876C8.59354 17.1876 2.34355 14.0626 3.90605 5.46886C3.90605 5.46886 7.81229 9.37511 12.4998 10.1564V8.59386Z" stroke="#FF1B5E" stroke-width="1.5" stroke-linecap="round" stroke-linejoin="round"/>
</svg>
